<svg width="15" height="14" viewBox="0 0 15 14" fill="none" xmlns="http://www.w3.org/2000/svg">
<path d="M6.10717 0.937715L6.81887 0.226013C7.12022 -0.0753378 7.60751 -0.0753378 7.90566 0.226013L14.1379 6.455C14.4392 6.75635 14.4392 7.24365 14.1379 7.54179L7.90566 13.774C7.60431 14.0753 7.11701 14.0753 6.81887 13.774L6.10717 13.0623C5.80261 12.7577 5.80902 12.2608 6.11999 11.9627L9.98306 8.28235H0.769407C0.343027 8.28235 0 7.93932 0 7.51294V6.48706C0 6.06068 0.343027 5.71766 0.769407 5.71766H9.98306L6.11999 2.03733C5.80582 1.73918 5.7994 1.24227 6.10717 0.937715Z" fill="white"/>
</svg>
