<svg width="50" height="74" viewBox="0 0 50 74" fill="none" xmlns="http://www.w3.org/2000/svg">
<path d="M47.7273 27.75H45.4545C44.1989 27.75 43.1818 28.7848 43.1818 30.0625V37C43.1818 47.8109 34.0213 56.4857 23.1832 55.4104C13.7372 54.4724 6.81818 45.8323 6.81818 36.1762V30.0625C6.81818 28.7848 5.80114 27.75 4.54545 27.75H2.27273C1.01705 27.75 0 28.7848 0 30.0625V35.8669C0 48.8227 9.08665 60.3722 21.5909 62.1268V67.0625H13.6364C12.3807 67.0625 11.3636 68.0973 11.3636 69.375V71.6875C11.3636 72.9652 12.3807 74 13.6364 74H36.3636C37.6193 74 38.6364 72.9652 38.6364 71.6875V69.375C38.6364 68.0973 37.6193 67.0625 36.3636 67.0625H28.4091V62.1817C40.5838 60.482 50 49.8488 50 37V30.0625C50 28.7848 48.983 27.75 47.7273 27.75ZM25 50.875C32.5312 50.875 38.6364 44.663 38.6364 37H26.5156C25.679 37 25 36.4826 25 35.8438V33.5312C25 32.8924 25.679 32.375 26.5156 32.375H38.6364V27.75H26.5156C25.679 27.75 25 27.2326 25 26.5938V24.2812C25 23.6424 25.679 23.125 26.5156 23.125H38.6364V18.5H26.5156C25.679 18.5 25 17.9826 25 17.3438V15.0312C25 14.3924 25.679 13.875 26.5156 13.875H38.6364C38.6364 6.21195 32.5312 0 25 0C17.4688 0 11.3636 6.21195 11.3636 13.875V37C11.3636 44.663 17.4688 50.875 25 50.875Z" fill="white"/>
</svg>

